<svg width="20" height="20" viewBox="0 0 20 20" fill="none" xmlns="http://www.w3.org/2000/svg">
<path d="M19.99 10.187c0-.82-.069-1.417-.216-2.037H10.2v3.698h5.62c-.113.76-.583 1.917-1.693 2.687l-.012.085 2.462 1.907.17.017c1.584-1.464 2.499-3.618 2.499-6.357z" fill="#4285F4"/>
<path d="M10.2 19.931c2.302 0 4.233-.76 5.645-2.058l-2.62-2.009c-.756.514-1.754.858-3.025.858-2.267 0-4.184-1.489-4.876-3.556l-.081.007-2.56 1.977-.033.076c1.414 2.807 4.31 4.705 7.55 4.705z" fill="#34A853"/>
<path d="M5.324 11.166c-.182-.514-.284-1.062-.284-1.629 0-.566.102-1.115.284-1.629l-.007-.092-2.607-2.025-.081.038C1.016 7.49.2 8.681.2 10.037s.816 2.548 2.429 4.169l2.695-2.04z" fill="#FBBC05"/>
<path d="M10.2 4.115c1.61 0 2.694.695 3.316 1.273l2.362-2.299C14.428.821 12.497 0 10.2 0 6.96 0 4.064 1.898 2.65 4.705l2.688 2.04c.692-2.067 2.609-3.556 4.876-3.556z" fill="#EB4335"/>
</svg>